<?xml version="1.0" encoding="UTF-8"?>
<!DOCTYPE svg PUBLIC "-//W3C//DTD SVG 1.1//EN" "http://www.w3.org/Graphics/SVG/1.1/DTD/svg11.dtd">
<svg xmlns="http://www.w3.org/2000/svg" xml:space="preserve" width="190px" height="190px" style="shape-rendering:geometricPrecision; text-rendering:geometricPrecision; image-rendering:optimizeQuality; fill-rule:evenodd; clip-rule:evenodd"
viewBox="0 0 16.7886 16.7886"
 xmlns:xlink="http://www.w3.org/1999/xlink">
 <defs>
  <style type="text/css">
   <![CDATA[
    .str0 {stroke:white;stroke-width:0.0557569}
    .fil0 {fill:white}
   ]]>
  </style>
 </defs>
 <g id="layer-0">
  <polygon class="fil0 str0" points="8.39428,0.0307499 9.02882,0.331447 9.70262,0.133733 10.2823,0.530192 10.9788,0.440117 11.4893,0.922302 12.1912,0.942403 12.62,1.49841 13.3102,1.62793 13.6468,2.24444 14.3082,2.48037 14.5442,3.1419 15.1605,3.47825 15.2901,4.1685 15.8462,4.59729 15.8663,5.29938 16.3485,5.80976 16.2585,6.50633 16.6548,7.086 16.457,7.75977 16.7578,8.39431 16.457,9.0288 16.6548,9.70256 16.2585,10.2822 16.3485,10.9788 15.8663,11.4892 15.8462,12.1913 15.2901,12.6201 15.1605,13.3103 14.5442,13.6467 14.3082,14.3082 13.6468,14.5441 13.3102,15.1606 12.6201,15.2902 12.1912,15.8462 11.4893,15.8663 10.9788,16.3485 10.2823,16.2584 9.70262,16.6549 9.02882,16.4571 8.39428,16.7578 7.75974,16.4571 7.08595,16.6549 6.50627,16.2584 5.80981,16.3485 5.2993,15.8663 4.59732,15.8462 4.16852,15.2902 3.47834,15.1606 3.14179,14.5443 2.48037,14.3082 2.24441,13.6468 1.62807,13.3103 1.49849,12.6201 0.942319,12.1914 0.922275,11.4894 0.440089,10.9788 0.530109,10.2822 0.133733,9.70256 0.331586,9.0288 0.0307499,8.39431 0.331586,7.75977 0.133733,7.086 0.530109,6.50633 0.440089,5.80976 0.922275,5.29938 0.942319,4.59729 1.49849,4.1685 1.62807,3.47825 2.24441,3.1419 2.48037,2.48037 3.14179,2.24444 3.47834,1.62793 4.1685,1.49841 4.59732,0.942403 5.2993,0.922302 5.80981,0.440117 6.50624,0.530192 7.08595,0.133733 7.75974,0.331447 "/>
 </g>
</svg>
